<svg xmlns="http://www.w3.org/2000/svg" width="20.501" height="22.365" viewBox="0 0 20.501 22.365"><defs><style>.a{fill:#b1b1b1;}</style></defs><g transform="translate(0 0)"><path class="a" d="M320.725,19.029A3.029,3.029,0,1,1,317.7,16a3.029,3.029,0,0,1,3.029,3.029Zm0,0" transform="translate(-300.923 -15.301)"/><path class="a" d="M302.4,7.455a3.728,3.728,0,1,1,3.727-3.728A3.731,3.731,0,0,1,302.4,7.455Zm0-6.057a2.33,2.33,0,1,0,2.33,2.33A2.332,2.332,0,0,0,302.4,1.4Zm0,0" transform="translate(-285.622)"/><path class="a" d="M320.725,360.361a3.029,3.029,0,1,1-3.029-3.029A3.029,3.029,0,0,1,320.725,360.361Zm0,0" transform="translate(-300.923 -341.723)"/><path class="a" d="M302.4,348.787a3.728,3.728,0,1,1,3.727-3.727A3.731,3.731,0,0,1,302.4,348.787Zm0-6.057a2.33,2.33,0,1,0,2.33,2.33A2.332,2.332,0,0,0,302.4,342.73Zm0,0" transform="translate(-285.622 -326.422)"/><path class="a" d="M22.057,189.7a3.029,3.029,0,1,1-3.029-3.029A3.029,3.029,0,0,1,22.057,189.7Zm0,0" transform="translate(-15.301 -178.514)"/><path class="a" d="M3.727,178.123A3.727,3.727,0,1,1,7.455,174.4a3.731,3.731,0,0,1-3.728,3.727Zm0-6.057a2.33,2.33,0,1,0,2.33,2.33,2.332,2.332,0,0,0-2.33-2.33Zm0,0" transform="translate(0 -163.213)"/><path class="a" d="M115.281,97.009a.932.932,0,0,1-.462-1.742l8.647-4.93a.932.932,0,1,1,.923,1.62l-8.647,4.93A.926.926,0,0,1,115.281,97.009Zm0,0" transform="translate(-109.353 -86.274)"/><path class="a" d="M123.949,273.013a.926.926,0,0,1-.46-.122l-8.647-4.93a.932.932,0,0,1,.923-1.62l8.647,4.93a.932.932,0,0,1-.462,1.742Zm0,0" transform="translate(-109.375 -254.59)"/></g></svg>